<mxfile host="Electron" modified="2023-08-05T07:49:12.990Z" agent="Mozilla/5.0 (X11; Linux x86_64) AppleWebKit/537.36 (KHTML, like Gecko) draw.io/21.6.5 Chrome/114.0.5735.243 Electron/25.3.1 Safari/537.36" etag="5dCkU3b17yKAAUdSQCgE" version="21.6.5" type="device">
  <diagram name="Страница 1" id="LpYiPgeCPbpfK5AM3XTe">
    <mxGraphModel dx="1114" dy="875" grid="1" gridSize="10" guides="1" tooltips="1" connect="1" arrows="1" fold="1" page="1" pageScale="1" pageWidth="827" pageHeight="1169" math="0" shadow="0">
      <root>
        <mxCell id="0" />
        <mxCell id="1" parent="0" />
        <mxCell id="ndIGZK97Jv1a1y9OGWnm-2" value="" style="rounded=0;whiteSpace=wrap;html=1;" parent="1" vertex="1">
          <mxGeometry x="60" y="30" width="120" height="40" as="geometry" />
        </mxCell>
        <mxCell id="ndIGZK97Jv1a1y9OGWnm-3" value="MQTT broker" style="text;html=1;strokeColor=none;fillColor=none;align=center;verticalAlign=middle;whiteSpace=wrap;rounded=0;" parent="1" vertex="1">
          <mxGeometry x="70" y="35" width="100" height="30" as="geometry" />
        </mxCell>
        <mxCell id="ndIGZK97Jv1a1y9OGWnm-4" value="" style="rounded=0;whiteSpace=wrap;html=1;" parent="1" vertex="1">
          <mxGeometry x="60" y="130" width="120" height="40" as="geometry" />
        </mxCell>
        <mxCell id="ndIGZK97Jv1a1y9OGWnm-5" value="MQTT-RabbitMQ bridge" style="text;html=1;strokeColor=none;fillColor=none;align=center;verticalAlign=middle;whiteSpace=wrap;rounded=0;" parent="1" vertex="1">
          <mxGeometry x="70" y="135" width="100" height="30" as="geometry" />
        </mxCell>
        <mxCell id="ndIGZK97Jv1a1y9OGWnm-6" value="" style="endArrow=classic;html=1;rounded=0;exitX=0.5;exitY=1;exitDx=0;exitDy=0;entryX=0.5;entryY=0;entryDx=0;entryDy=0;" parent="1" source="ndIGZK97Jv1a1y9OGWnm-2" target="ndIGZK97Jv1a1y9OGWnm-4" edge="1">
          <mxGeometry width="50" height="50" relative="1" as="geometry">
            <mxPoint x="390" y="470" as="sourcePoint" />
            <mxPoint x="120" y="120" as="targetPoint" />
          </mxGeometry>
        </mxCell>
        <mxCell id="ndIGZK97Jv1a1y9OGWnm-7" value="" style="rounded=0;whiteSpace=wrap;html=1;" parent="1" vertex="1">
          <mxGeometry x="250" y="130" width="120" height="40" as="geometry" />
        </mxCell>
        <mxCell id="ndIGZK97Jv1a1y9OGWnm-8" value="RabbitMQ" style="text;html=1;strokeColor=none;fillColor=none;align=center;verticalAlign=middle;whiteSpace=wrap;rounded=0;" parent="1" vertex="1">
          <mxGeometry x="260" y="135" width="100" height="30" as="geometry" />
        </mxCell>
        <mxCell id="ndIGZK97Jv1a1y9OGWnm-9" value="" style="rounded=0;whiteSpace=wrap;html=1;" parent="1" vertex="1">
          <mxGeometry x="430" y="130" width="120" height="40" as="geometry" />
        </mxCell>
        <mxCell id="ndIGZK97Jv1a1y9OGWnm-10" value="App cli process" style="text;html=1;strokeColor=none;fillColor=none;align=center;verticalAlign=middle;whiteSpace=wrap;rounded=0;" parent="1" vertex="1">
          <mxGeometry x="440" y="135" width="100" height="30" as="geometry" />
        </mxCell>
        <mxCell id="ndIGZK97Jv1a1y9OGWnm-11" value="" style="rounded=0;whiteSpace=wrap;html=1;" parent="1" vertex="1">
          <mxGeometry x="430" y="250" width="120" height="40" as="geometry" />
        </mxCell>
        <mxCell id="ndIGZK97Jv1a1y9OGWnm-12" value="Redis cache" style="text;html=1;strokeColor=none;fillColor=none;align=center;verticalAlign=middle;whiteSpace=wrap;rounded=0;" parent="1" vertex="1">
          <mxGeometry x="440" y="255" width="100" height="30" as="geometry" />
        </mxCell>
        <mxCell id="ndIGZK97Jv1a1y9OGWnm-13" value="" style="rounded=0;whiteSpace=wrap;html=1;" parent="1" vertex="1">
          <mxGeometry x="670" y="250" width="120" height="40" as="geometry" />
        </mxCell>
        <mxCell id="ndIGZK97Jv1a1y9OGWnm-14" value="App web page" style="text;html=1;strokeColor=none;fillColor=none;align=center;verticalAlign=middle;whiteSpace=wrap;rounded=0;" parent="1" vertex="1">
          <mxGeometry x="680" y="255" width="100" height="30" as="geometry" />
        </mxCell>
        <mxCell id="ndIGZK97Jv1a1y9OGWnm-15" value="" style="endArrow=classic;html=1;rounded=0;exitX=1;exitY=0.5;exitDx=0;exitDy=0;entryX=0;entryY=0.5;entryDx=0;entryDy=0;" parent="1" source="ndIGZK97Jv1a1y9OGWnm-4" target="ndIGZK97Jv1a1y9OGWnm-7" edge="1">
          <mxGeometry width="50" height="50" relative="1" as="geometry">
            <mxPoint x="420" y="310" as="sourcePoint" />
            <mxPoint x="470" y="260" as="targetPoint" />
          </mxGeometry>
        </mxCell>
        <mxCell id="ndIGZK97Jv1a1y9OGWnm-16" value="" style="endArrow=classic;html=1;rounded=0;entryX=0;entryY=0.5;entryDx=0;entryDy=0;exitX=1;exitY=0.5;exitDx=0;exitDy=0;" parent="1" source="ndIGZK97Jv1a1y9OGWnm-7" target="ndIGZK97Jv1a1y9OGWnm-9" edge="1">
          <mxGeometry width="50" height="50" relative="1" as="geometry">
            <mxPoint x="390" y="180" as="sourcePoint" />
            <mxPoint x="410" y="170" as="targetPoint" />
          </mxGeometry>
        </mxCell>
        <mxCell id="ndIGZK97Jv1a1y9OGWnm-17" value="" style="endArrow=classic;html=1;rounded=0;entryX=0.5;entryY=0;entryDx=0;entryDy=0;exitX=0.5;exitY=1;exitDx=0;exitDy=0;" parent="1" source="ndIGZK97Jv1a1y9OGWnm-9" target="ndIGZK97Jv1a1y9OGWnm-11" edge="1">
          <mxGeometry width="50" height="50" relative="1" as="geometry">
            <mxPoint x="470" y="210" as="sourcePoint" />
            <mxPoint x="530" y="210" as="targetPoint" />
          </mxGeometry>
        </mxCell>
        <mxCell id="ndIGZK97Jv1a1y9OGWnm-18" value="" style="endArrow=classic;html=1;rounded=0;entryX=0;entryY=0.5;entryDx=0;entryDy=0;exitX=1;exitY=0.5;exitDx=0;exitDy=0;" parent="1" source="ndIGZK97Jv1a1y9OGWnm-11" target="ndIGZK97Jv1a1y9OGWnm-13" edge="1">
          <mxGeometry width="50" height="50" relative="1" as="geometry">
            <mxPoint x="590" y="269.65999999999997" as="sourcePoint" />
            <mxPoint x="650" y="269.65999999999997" as="targetPoint" />
          </mxGeometry>
        </mxCell>
        <mxCell id="ndIGZK97Jv1a1y9OGWnm-19" value="" style="endArrow=none;html=1;rounded=0;entryX=0.329;entryY=0.907;entryDx=0;entryDy=0;entryPerimeter=0;" parent="1" target="ndIGZK97Jv1a1y9OGWnm-20" edge="1">
          <mxGeometry width="50" height="50" relative="1" as="geometry">
            <mxPoint x="480" y="130" as="sourcePoint" />
            <mxPoint x="530" y="40" as="targetPoint" />
          </mxGeometry>
        </mxCell>
        <mxCell id="ndIGZK97Jv1a1y9OGWnm-20" value="- Secure system&lt;br&gt;- Fire secure system&lt;br&gt;- Device validate value" style="rounded=0;whiteSpace=wrap;html=1;align=left;dashed=1;glass=0;fillStyle=dashed;fillColor=#fff2cc;strokeColor=#d6b656;perimeterSpacing=8;strokeWidth=3;" parent="1" vertex="1">
          <mxGeometry x="520" y="5" width="160" height="60" as="geometry" />
        </mxCell>
        <mxCell id="dajKJa7y1lr51TSpLAkz-1" value="" style="endArrow=classic;html=1;rounded=0;entryX=0.842;entryY=1.1;entryDx=0;entryDy=0;entryPerimeter=0;exitX=0.5;exitY=1;exitDx=0;exitDy=0;" edge="1" parent="1" source="ndIGZK97Jv1a1y9OGWnm-13" target="ndIGZK97Jv1a1y9OGWnm-2">
          <mxGeometry width="50" height="50" relative="1" as="geometry">
            <mxPoint x="720" y="330" as="sourcePoint" />
            <mxPoint x="440" y="420" as="targetPoint" />
            <Array as="points">
              <mxPoint x="730" y="320" />
              <mxPoint x="200" y="320" />
              <mxPoint x="200" y="110" />
              <mxPoint x="161" y="110" />
            </Array>
          </mxGeometry>
        </mxCell>
      </root>
    </mxGraphModel>
  </diagram>
</mxfile>
